<?xml version="1.0" encoding="utf-8"?>
<svg viewBox="0 0 1000 100" xmlns="http://www.w3.org/2000/svg">
  <path d="M 5 28.238 L 5 5.984 L 72.145 5.984 L 72.145 28.238 L 63.346 28.238 L 63.346 14.157 L 13.894 14.157 L 13.894 28.238 L 5 28.238 Z M 21.163 73.534 L 21.163 65.261 L 55.98 65.261 L 55.98 73.534 L 21.163 73.534 Z M 33.597 68.313 L 33.597 10.515 L 43.546 10.515 L 43.546 68.313 L 33.597 68.313 Z" style="fill: rgb(51, 51, 51);"/>
  <path d="M 124.814 73.534 L 124.814 46.551 C 124.814 44.648 124.608 42.959 124.192 41.481 C 123.779 40.005 123.141 38.758 122.28 37.741 C 121.418 36.721 120.35 35.952 119.075 35.427 C 117.801 34.901 116.334 34.639 114.676 34.639 C 112.956 34.639 111.217 35.016 109.464 35.77 C 107.711 36.525 105.957 37.576 104.204 38.92 C 102.451 40.268 100.696 41.908 98.943 43.845 C 97.19 45.782 95.419 47.932 93.633 50.296 L 93.633 42.417 C 95.674 39.857 97.666 37.559 99.611 35.525 C 101.557 33.49 103.519 31.751 105.495 30.306 C 107.47 28.861 109.511 27.78 111.617 27.058 C 113.72 26.334 115.983 25.971 118.408 25.971 C 120.959 25.971 123.222 26.382 125.197 27.204 C 127.173 28.023 128.83 29.289 130.17 30.997 C 131.51 32.702 132.532 34.82 133.233 37.347 C 133.934 39.874 134.284 42.845 134.284 46.26 L 134.284 73.534 L 124.814 73.534 Z M 77.947 73.534 L 77.947 65.753 L 105.684 65.753 L 105.684 73.534 L 77.947 73.534 Z M 116.59 73.534 L 116.59 65.753 L 143.181 65.753 L 143.181 73.534 L 116.59 73.534 Z M 97.46 5.984 L 97.46 73.534 L 88.085 73.534 L 88.085 13.765 L 77.947 13.765 L 77.947 5.984 L 97.46 5.984 Z" style="fill: rgb(51, 51, 51);"/>
  <path d="M 157.232 71.368 L 157.232 27.156 L 166.702 27.156 L 166.702 71.368 L 157.232 71.368 Z M 147.094 73.534 L 147.094 65.753 L 176.936 65.753 L 176.936 73.534 L 147.094 73.534 Z M 147.094 34.935 L 147.094 27.156 L 164.501 27.156 L 164.501 34.935 L 147.094 34.935 Z M 160.77 17.013 C 158.794 17.013 157.088 16.454 155.653 15.339 C 154.218 14.221 153.501 12.843 153.501 11.202 C 153.501 9.366 154.218 7.873 155.653 6.722 C 157.088 5.573 158.794 5 160.77 5 C 163.001 5 164.819 5.573 166.224 6.722 C 167.626 7.873 168.327 9.366 168.327 11.202 C 168.327 12.843 167.626 14.221 166.224 15.339 C 164.819 16.454 163.001 17.013 160.77 17.013 Z" style="fill: rgb(51, 51, 51);"/>
  <path d="M 228.298 73.534 L 228.298 46.551 C 228.298 44.782 228.075 43.189 227.627 41.777 C 227.182 40.366 226.529 39.15 225.668 38.135 C 224.807 37.118 223.752 36.346 222.51 35.818 C 221.269 35.295 219.817 35.033 218.157 35.033 C 216.437 35.033 214.698 35.376 212.946 36.064 C 211.193 36.754 209.421 37.772 207.636 39.119 C 205.851 40.463 204.081 42.073 202.328 43.943 C 200.577 45.816 198.804 47.932 197.019 50.296 L 197.019 42.417 C 199.06 39.857 201.054 37.559 202.997 35.525 C 204.943 33.49 206.888 31.751 208.831 30.306 C 210.777 28.861 212.785 27.78 214.858 27.058 C 216.932 26.334 219.113 25.971 221.41 25.971 C 224.024 25.971 226.336 26.382 228.344 27.204 C 230.353 28.023 232.043 29.289 233.415 30.997 C 234.787 32.702 235.839 34.82 236.57 37.347 C 237.303 39.874 237.671 42.845 237.671 46.26 L 237.671 73.534 L 228.298 73.534 Z M 181.047 73.534 L 181.047 65.753 L 208.88 65.753 L 208.88 73.534 L 181.047 73.534 Z M 191.185 73.534 L 191.185 27.156 L 200.655 27.156 L 200.655 73.534 L 191.185 73.534 Z M 181.047 34.935 L 181.047 27.156 L 198.647 27.156 L 198.647 34.935 L 181.047 34.935 Z M 219.975 73.534 L 219.975 65.753 L 246.566 65.753 L 246.566 73.534 L 219.975 73.534 Z" style="fill: rgb(51, 51, 51);"/>
  <path d="M 285.201 56.496 C 282.78 56.496 280.484 56.269 278.316 55.808 C 276.147 55.35 274.058 54.76 272.049 54.036 C 270.042 53.312 268.08 52.56 266.167 51.772 L 266.167 45.469 C 268.398 46.389 270.52 47.143 272.528 47.736 C 274.536 48.326 276.435 48.734 278.221 48.966 C 280.006 49.195 281.663 49.31 283.194 49.31 C 285.299 49.245 287.242 48.918 289.028 48.326 C 290.813 47.736 292.263 46.833 293.38 45.617 C 294.497 44.404 295.054 42.909 295.054 41.137 C 295.054 38.904 294.272 37.165 292.71 35.919 C 291.147 34.672 288.995 34.049 286.253 34.049 C 284.405 34.049 282.348 34.457 280.085 35.279 C 277.821 36.1 275.508 37.249 273.15 38.725 C 270.791 40.201 268.463 41.992 266.167 44.091 L 266.359 37.397 C 268.528 35.164 270.808 33.196 273.199 31.489 C 275.59 29.781 278.093 28.434 280.707 27.45 C 283.321 26.463 285.967 25.971 288.645 25.971 C 291.514 25.971 294.193 26.53 296.679 27.648 C 299.166 28.763 301.16 30.421 302.657 32.618 C 304.155 34.82 304.872 37.562 304.809 40.843 C 304.809 43.337 304.236 45.553 303.09 47.49 C 301.94 49.424 300.443 51.065 298.592 52.412 C 296.742 53.757 294.655 54.774 292.329 55.464 C 290 56.152 287.625 56.496 285.201 56.496 Z M 249.526 73.534 L 249.526 65.753 L 278.221 65.753 L 278.221 73.534 L 249.526 73.534 Z M 259.569 71.368 L 259.569 5.984 L 268.655 5.984 L 268.655 71.368 L 259.569 71.368 Z M 249.526 13.765 L 249.526 5.984 L 268.08 5.984 L 268.08 13.765 L 249.526 13.765 Z M 301.655 74.912 C 298.657 74.912 295.995 74.09 293.666 72.45 C 291.34 70.809 289.443 68.444 287.976 65.359 C 286.509 62.273 285.552 58.533 285.106 54.137 L 291.897 54.137 C 292.47 57.024 293.253 59.402 294.242 61.275 C 295.228 63.145 296.408 64.54 297.78 65.459 C 299.152 66.376 300.666 66.871 302.324 66.938 C 303.535 66.938 304.668 66.804 305.719 66.541 C 306.771 66.278 307.775 65.884 308.73 65.359 L 310.742 72.352 C 309.529 73.14 308.141 73.763 306.579 74.222 C 305.017 74.683 303.374 74.912 301.655 74.912 Z" style="fill: rgb(51, 51, 51);"/>
  <path d="M 340.891 13.765 L 340.891 5.984 L 359.064 5.984 L 359.064 13.765 L 340.891 13.765 Z M 377.62 25.971 C 381.381 25.971 384.84 26.972 387.997 28.976 C 391.152 30.98 393.688 33.769 395.601 37.347 C 397.513 40.922 398.47 45.109 398.47 49.902 C 398.47 53.575 397.881 56.94 396.701 59.995 C 395.522 63.047 393.864 65.672 391.729 67.871 C 389.59 70.071 387.104 71.793 384.267 73.042 C 381.43 74.289 378.354 74.912 375.036 74.912 C 371.721 74.912 368.802 74.272 366.283 72.989 C 363.764 71.712 361.533 70.119 359.588 68.215 C 357.645 66.312 355.938 64.473 354.471 62.701 L 354.471 55.71 C 356.001 57.549 357.741 59.305 359.686 60.979 C 361.628 62.653 363.719 64.014 365.949 65.065 C 368.18 66.116 370.542 66.639 373.027 66.639 C 375.324 66.639 377.411 66.231 379.294 65.409 C 381.174 64.59 382.832 63.422 384.267 61.912 C 385.701 60.403 386.801 58.631 387.566 56.599 C 388.332 54.561 388.715 52.295 388.715 49.804 C 388.715 46.652 388.126 43.893 386.946 41.531 C 385.764 39.169 384.123 37.347 382.019 36.064 C 379.913 34.787 377.493 34.18 374.75 34.244 C 372.264 34.244 369.775 34.999 367.289 36.511 C 364.803 38.018 362.49 40.069 360.354 42.663 C 358.218 45.257 356.354 48.259 354.759 51.674 L 354.759 44.189 C 356.224 40.645 358.153 37.512 360.544 34.787 C 362.936 32.061 365.615 29.912 368.58 28.336 C 371.544 26.759 374.558 25.971 377.62 25.971 Z M 350.262 73.534 L 350.262 5.984 L 359.542 5.984 L 359.542 65.065 L 355.906 73.534 L 350.262 73.534 Z M 340.602 87.384 L 402.392 87.384 L 402.392 92.932 L 340.602 92.932 L 340.602 87.384 Z" style="fill: rgb(51, 51, 51); text-decoration: underline solid rgba(0, 0, 0, 0.85);"/>
  <path d="M 415.293 71.368 L 415.293 27.156 L 424.76 27.156 L 424.76 71.368 L 415.293 71.368 Z M 405.152 73.534 L 405.152 65.753 L 434.996 65.753 L 434.996 73.534 L 405.152 73.534 Z M 405.152 34.935 L 405.152 27.156 L 422.562 27.156 L 422.562 34.935 L 405.152 34.935 Z M 418.83 17.013 C 416.855 17.013 415.149 16.454 413.714 15.339 C 412.28 14.221 411.562 12.843 411.562 11.202 C 411.562 9.366 412.28 7.873 413.714 6.722 C 415.149 5.573 416.855 5 418.83 5 C 421.062 5 422.88 5.573 424.282 6.722 C 425.686 7.873 426.387 9.366 426.387 11.202 C 426.387 12.843 425.686 14.221 424.282 15.339 C 422.88 16.454 421.062 17.013 418.83 17.013 Z M 402.38 87.384 L 436.336 87.384 L 436.336 92.932 L 402.38 92.932 L 402.38 87.384 Z" style="fill: rgb(51, 51, 51); text-decoration: underline solid rgba(0, 0, 0, 0.85);"/>
  <path d="M 459.765 95 C 455.62 95 451.89 94.441 448.575 93.323 C 445.257 92.208 442.627 90.634 440.683 88.599 C 438.738 86.562 437.765 84.102 437.765 81.215 C 437.765 79.177 438.26 77.372 439.248 75.798 C 440.235 74.222 441.431 72.861 442.836 71.712 C 444.238 70.563 445.577 69.627 446.852 68.906 L 451.061 71.17 C 449.849 71.759 448.702 72.763 447.618 74.174 C 446.534 75.586 445.991 77.277 445.991 79.244 C 445.991 80.818 446.58 82.196 447.759 83.381 C 448.941 84.563 450.661 85.466 452.925 86.087 C 455.189 86.71 457.917 87.023 461.104 87.023 C 464.482 87.023 467.656 86.629 470.62 85.841 C 473.584 85.055 476.008 83.937 477.889 82.492 C 479.773 81.05 480.713 79.342 480.713 77.375 C 480.713 75.6 480.074 74.32 478.799 73.534 C 477.525 72.746 475.802 72.352 473.634 72.352 C 472.104 72.352 470.558 72.466 468.996 72.696 C 467.432 72.925 465.822 73.188 464.164 73.484 C 462.506 73.78 460.77 74.043 458.952 74.272 C 457.134 74.501 455.175 74.616 453.069 74.616 C 450.328 74.616 447.903 74.141 445.8 73.19 C 443.694 72.237 442.053 70.924 440.874 69.249 C 439.695 67.575 439.105 65.722 439.105 63.687 C 439.105 61.454 439.645 59.486 440.73 57.779 C 441.814 56.071 443.186 54.595 444.843 53.346 C 446.501 52.099 448.224 51.115 450.01 50.394 L 454.026 53.15 C 452.876 53.74 451.792 54.461 450.773 55.316 C 449.754 56.171 448.941 57.105 448.336 58.122 C 447.73 59.14 447.426 60.241 447.426 61.42 C 447.426 62.536 447.713 63.506 448.287 64.327 C 448.86 65.146 449.689 65.772 450.773 66.197 C 451.857 66.622 453.164 66.837 454.694 66.837 C 456.48 66.837 458.202 66.737 459.86 66.541 C 461.518 66.345 463.175 66.099 464.835 65.803 C 466.492 65.507 468.199 65.261 469.951 65.065 C 471.704 64.867 473.601 64.769 475.642 64.769 C 478.321 64.769 480.68 65.227 482.72 66.147 C 484.761 67.066 486.37 68.414 487.552 70.183 C 488.731 71.958 489.32 74.157 489.32 76.782 C 489.32 79.605 488.538 82.148 486.975 84.415 C 485.413 86.679 483.247 88.583 480.473 90.123 C 477.699 91.666 474.544 92.865 471.003 93.72 C 467.463 94.572 463.719 95 459.765 95 Z M 463.495 59.45 C 461.009 59.45 458.569 59.106 456.177 58.419 C 453.787 57.728 451.602 56.677 449.627 55.266 C 447.651 53.857 446.072 52.116 444.89 50.05 C 443.711 47.982 443.121 45.567 443.121 42.811 C 443.121 39.988 443.743 37.526 444.987 35.427 C 446.23 33.325 447.857 31.57 449.865 30.158 C 451.873 28.747 454.058 27.696 456.416 27.008 C 458.775 26.318 461.134 25.971 463.495 25.971 C 465.982 25.971 468.422 26.318 470.813 27.008 C 473.204 27.696 475.389 28.73 477.364 30.108 C 479.34 31.486 480.935 33.21 482.147 35.279 C 483.359 37.347 483.965 39.759 483.965 42.515 C 483.965 45.271 483.359 47.716 482.147 49.849 C 480.935 51.984 479.34 53.757 477.364 55.168 C 475.389 56.58 473.188 57.647 470.764 58.368 C 468.34 59.089 465.917 59.45 463.495 59.45 Z M 463.495 52.46 C 465.664 52.46 467.593 52.068 469.281 51.28 C 470.971 50.492 472.294 49.343 473.251 47.834 C 474.207 46.322 474.685 44.55 474.685 42.515 C 474.685 40.48 474.175 38.742 473.156 37.297 C 472.137 35.852 470.781 34.77 469.09 34.049 C 467.4 33.325 465.536 32.964 463.495 32.964 C 461.52 32.964 459.669 33.358 457.947 34.147 C 456.227 34.932 454.854 36.05 453.835 37.495 C 452.814 38.937 452.303 40.709 452.303 42.811 C 452.303 44.846 452.814 46.587 453.835 48.03 C 454.854 49.475 456.227 50.573 457.947 51.328 C 459.669 52.082 461.52 52.46 463.495 52.46 Z M 476.503 32.864 L 473.251 30.01 C 473.761 27.911 474.479 26.089 475.402 24.546 C 476.329 23.003 477.46 21.723 478.799 20.705 C 480.139 19.688 481.653 18.9 483.342 18.341 C 485.033 17.782 486.835 17.471 488.748 17.407 L 488.748 25.479 C 485.878 25.613 483.486 26.186 481.574 27.204 C 479.661 28.221 477.971 30.108 476.503 32.864 Z M 435.853 87.384 L 491.329 87.384 L 491.329 92.932 L 435.853 92.932 L 435.853 87.384 Z" style="fill: rgb(51, 51, 51); text-decoration: underline solid rgba(0, 0, 0, 0.85);"/>
  <path d="M 504.826 74.814 C 502.72 74.814 500.889 74.191 499.326 72.942 C 497.764 71.695 496.983 70.152 496.983 68.313 C 496.983 66.345 497.764 64.735 499.326 63.489 C 500.889 62.242 502.72 61.619 504.826 61.619 C 507.185 61.619 509.113 62.242 510.613 63.489 C 512.111 64.735 512.861 66.345 512.861 68.313 C 512.861 70.152 512.111 71.695 510.613 72.942 C 509.113 74.191 507.185 74.814 504.826 74.814 Z" style="fill: rgb(51, 51, 51);"/>
  <path d="M 550.055 73.534 L 550.055 65.261 L 581.24 65.261 C 584.938 65.261 588.476 64.8 591.856 63.883 C 595.233 62.963 598.264 61.504 600.943 59.5 C 603.619 57.499 605.725 54.872 607.255 51.624 C 608.785 48.376 609.551 44.421 609.551 39.756 C 609.551 35.033 608.785 31.044 607.255 27.796 C 605.725 24.546 603.619 21.935 600.943 19.967 C 598.264 17.997 595.233 16.552 591.856 15.632 C 588.476 14.716 584.938 14.257 581.24 14.257 L 550.055 14.257 L 550.055 5.984 L 582.196 5.984 C 587.169 5.984 591.918 6.674 596.446 8.052 C 600.975 9.43 604.991 11.515 608.5 14.305 C 612.008 17.094 614.779 20.607 616.82 24.842 C 618.861 29.074 619.879 34.046 619.879 39.756 C 619.879 45.405 618.861 50.344 616.82 54.578 C 614.779 58.81 612.008 62.34 608.5 65.163 C 604.991 67.986 600.975 70.088 596.446 71.466 C 591.918 72.844 587.169 73.534 582.196 73.534 L 550.055 73.534 Z M 562.395 68.707 L 562.395 10.71 L 572.343 10.71 L 572.343 68.707 L 562.395 68.707 Z" style="fill: rgb(51, 51, 51);"/>
  <path d="M 653.517 74.912 C 650.202 74.912 647.061 74.339 644.097 73.19 C 641.132 72.039 638.485 70.398 636.156 68.266 C 633.828 66.133 631.996 63.57 630.656 60.585 C 629.317 57.597 628.649 54.234 628.649 50.492 C 628.649 46.749 629.317 43.37 630.656 40.349 C 631.996 37.33 633.828 34.753 636.156 32.618 C 638.485 30.485 641.132 28.844 644.097 27.696 C 647.061 26.547 650.202 25.971 653.517 25.971 C 656.704 25.971 659.797 26.547 662.794 27.696 C 665.791 28.844 668.454 30.485 670.784 32.618 C 673.109 34.753 674.944 37.33 676.283 40.349 C 677.623 43.37 678.291 46.749 678.291 50.492 C 678.291 54.234 677.637 57.597 676.329 60.585 C 675.022 63.57 673.221 66.133 670.925 68.266 C 668.628 70.398 665.984 72.039 662.988 73.19 C 659.99 74.339 656.833 74.912 653.517 74.912 Z M 653.517 67.231 C 656.386 67.231 658.938 66.541 661.17 65.163 C 663.4 63.785 665.186 61.848 666.525 59.352 C 667.865 56.859 668.533 53.905 668.533 50.492 C 668.533 47.079 667.865 44.125 666.525 41.629 C 665.186 39.136 663.4 37.199 661.17 35.818 C 658.938 34.44 656.386 33.75 653.517 33.75 C 650.647 33.75 648.066 34.44 645.77 35.818 C 643.474 37.199 641.672 39.136 640.366 41.629 C 639.059 44.125 638.404 47.079 638.404 50.492 C 638.404 53.905 639.059 56.859 640.366 59.352 C 641.672 61.848 643.474 63.785 645.77 65.163 C 648.066 66.541 650.647 67.231 653.517 67.231 Z" style="fill: rgb(51, 51, 51);"/>
  <path d="M 713.235 34.935 L 713.235 27.156 L 730.167 27.156 L 730.167 34.935 L 713.235 34.935 Z M 723.374 71.368 L 723.374 27.156 L 732.844 27.156 L 732.844 71.368 L 723.374 71.368 Z M 713.235 73.534 L 713.235 65.753 L 741.069 65.753 L 741.069 73.534 L 713.235 73.534 Z M 757.906 71.368 L 757.906 45.961 C 757.906 43.731 757.571 41.811 756.901 40.201 C 756.229 38.593 755.243 37.33 753.935 36.413 C 752.629 35.491 750.985 35.033 749.009 35.033 C 746.84 35.033 744.61 35.639 742.314 36.855 C 740.017 38.068 737.786 39.823 735.618 42.121 C 733.45 44.418 731.314 47.143 729.211 50.296 L 729.211 42.417 C 731.251 39.069 733.482 36.167 735.906 33.705 C 738.328 31.243 740.926 29.339 743.699 27.992 C 746.474 26.645 749.33 25.971 752.262 25.971 C 754.621 25.971 756.707 26.382 758.525 27.204 C 760.343 28.023 761.922 29.272 763.262 30.946 C 764.601 32.62 765.604 34.672 766.276 37.101 C 766.943 39.527 767.278 42.384 767.278 45.665 L 767.278 71.368 L 757.906 71.368 Z M 749.677 73.534 L 749.677 65.753 L 775.503 65.753 L 775.503 73.534 L 749.677 73.534 Z M 792.147 71.368 L 792.147 45.961 C 792.147 44.32 791.973 42.828 791.623 41.481 C 791.272 40.136 790.728 38.988 789.994 38.034 C 789.261 37.084 788.337 36.346 787.22 35.818 C 786.103 35.295 784.812 35.033 783.348 35.033 C 781.179 35.033 778.949 35.639 776.653 36.855 C 774.356 38.068 772.125 39.823 769.957 42.121 C 767.788 44.418 765.685 47.143 763.645 50.296 L 763.645 42.417 C 765.685 39.069 767.9 36.167 770.292 33.705 C 772.682 31.243 775.25 29.339 777.992 27.992 C 780.734 26.645 783.603 25.971 786.6 25.971 C 788.897 25.971 790.967 26.382 792.817 27.204 C 794.666 28.023 796.244 29.272 797.551 30.946 C 798.859 32.62 799.847 34.672 800.516 37.101 C 801.187 39.527 801.521 42.384 801.521 45.665 L 801.521 71.368 L 792.147 71.368 Z M 784.016 73.534 L 784.016 65.753 L 810.415 65.753 L 810.415 73.534 L 784.016 73.534 Z M 710.462 87.384 L 811.564 87.384 L 811.564 92.932 L 710.462 92.932 L 710.462 87.384 Z" style="fill: rgb(51, 51, 51); text-decoration: underline solid rgba(0, 0, 0, 0.85);"/>
  <path d="M 840.048 74.912 C 836.73 74.912 833.588 74.339 830.624 73.19 C 827.659 72.039 825.016 70.398 822.686 68.266 C 820.358 66.133 818.526 63.57 817.186 60.585 C 815.847 57.597 815.179 54.234 815.179 50.492 C 815.179 46.749 815.847 43.37 817.186 40.349 C 818.526 37.33 820.358 34.753 822.686 32.618 C 825.016 30.485 827.659 28.844 830.624 27.696 C 833.588 26.547 836.73 25.971 840.048 25.971 C 843.234 25.971 846.327 26.547 849.324 27.696 C 852.322 28.844 854.982 30.485 857.311 32.618 C 859.639 34.753 861.471 37.33 862.811 40.349 C 864.15 43.37 864.818 46.749 864.818 50.492 C 864.818 54.234 864.166 57.597 862.859 60.585 C 861.553 63.57 859.751 66.133 857.455 68.266 C 855.158 70.398 852.512 72.039 849.515 73.19 C 846.518 74.339 843.363 74.912 840.048 74.912 Z M 840.048 67.231 C 842.917 67.231 845.469 66.541 847.7 65.163 C 849.93 63.785 851.716 61.848 853.056 59.352 C 854.395 56.859 855.063 53.905 855.063 50.492 C 855.063 47.079 854.395 44.125 853.056 41.629 C 851.716 39.136 849.93 37.199 847.7 35.818 C 845.469 34.44 842.917 33.75 840.048 33.75 C 837.178 33.75 834.594 34.44 832.297 35.818 C 830.002 37.199 828.202 39.136 826.896 41.629 C 825.588 44.125 824.934 47.079 824.934 50.492 C 824.934 53.905 825.588 56.859 826.896 59.352 C 828.202 61.848 830.002 63.785 832.297 65.163 C 834.594 66.541 837.178 67.231 840.048 67.231 Z M 811.255 87.384 L 868.742 87.384 L 868.742 92.932 L 811.255 92.932 L 811.255 87.384 Z" style="fill: rgb(51, 51, 51); text-decoration: underline solid rgba(0, 0, 0, 0.85);"/>
  <path d="M 888.035 50.296 L 888.035 42.613 C 890.397 39.396 892.916 36.525 895.592 33.998 C 898.271 31.472 901.046 29.501 903.915 28.09 C 906.785 26.678 909.654 25.971 912.524 25.971 L 916.54 25.971 L 916.54 45.766 L 908.314 45.766 L 908.314 35.525 C 906.339 35.525 904.233 36.114 902.003 37.297 C 899.772 38.479 897.475 40.17 895.114 42.367 C 892.755 44.566 890.397 47.208 888.035 50.296 Z M 871.489 73.534 L 871.489 65.753 L 901.331 65.753 L 901.331 73.534 L 871.489 73.534 Z M 881.627 71.368 L 881.627 27.156 L 891.098 27.156 L 891.098 71.368 L 881.627 71.368 Z M 871.489 34.935 L 871.489 27.156 L 890.524 27.156 L 890.524 34.935 L 871.489 34.935 Z M 868.715 87.384 L 921.227 87.384 L 921.227 92.932 L 868.715 92.932 L 868.715 87.384 Z" style="fill: rgb(51, 51, 51); text-decoration: underline solid rgba(0, 0, 0, 0.85);"/>
  <path d="M 948.77 74.912 C 945.646 74.912 942.602 74.403 939.637 73.386 C 936.672 72.369 933.993 70.876 931.602 68.906 C 929.211 66.938 927.314 64.492 925.909 61.569 C 924.507 58.648 923.806 55.283 923.806 51.476 C 923.806 47.406 924.524 43.795 925.959 40.645 C 927.393 37.495 929.322 34.837 931.746 32.668 C 934.167 30.502 936.879 28.844 939.877 27.696 C 942.874 26.547 945.965 25.971 949.153 25.971 C 952.979 25.971 956.359 26.58 959.291 27.796 C 962.223 29.009 964.536 30.717 966.226 32.914 C 967.917 35.114 968.761 37.691 968.761 40.645 C 968.761 43.664 967.884 46.19 966.131 48.228 C 964.378 50.263 962.098 51.789 959.291 52.803 C 956.485 53.824 953.52 54.332 950.398 54.332 C 946.507 54.332 943.015 53.857 939.922 52.904 C 936.83 51.951 933.817 50.788 930.885 49.407 L 930.789 43.499 C 934.167 45.011 937.276 46.062 940.116 46.649 C 942.953 47.241 945.711 47.538 948.387 47.538 C 950.428 47.538 952.261 47.275 953.887 46.752 C 955.514 46.224 956.837 45.436 957.856 44.388 C 958.876 43.337 959.387 42.09 959.387 40.645 C 959.387 38.543 958.495 36.855 956.71 35.572 C 954.925 34.292 952.629 33.655 949.821 33.655 C 947.718 33.655 945.661 34.063 943.654 34.884 C 941.645 35.706 939.827 36.872 938.202 38.381 C 936.575 39.89 935.267 41.71 934.279 43.845 C 933.292 45.978 932.798 48.424 932.798 51.182 C 932.798 54.397 933.564 57.169 935.093 59.5 C 936.624 61.831 938.616 63.606 941.071 64.819 C 943.525 66.032 946.189 66.639 949.058 66.639 C 952.629 66.639 955.77 66.032 958.479 64.819 C 961.188 63.606 963.595 62.08 965.702 60.241 L 969.718 66.639 C 967.932 68.215 966.003 69.627 963.93 70.876 C 961.857 72.12 959.563 73.107 957.045 73.828 C 954.526 74.552 951.767 74.912 948.77 74.912 Z M 919.885 87.384 L 973.448 87.384 L 973.448 92.932 L 919.885 92.932 L 919.885 87.384 Z" style="fill: rgb(51, 51, 51); text-decoration: underline solid rgba(0, 0, 0, 0.85);"/>
  <path d="M 986.965 74.814 C 984.861 74.814 983.027 74.191 981.465 72.942 C 979.902 71.695 979.122 70.152 979.122 68.313 C 979.122 66.345 979.902 64.735 981.465 63.489 C 983.027 62.242 984.861 61.619 986.965 61.619 C 989.326 61.619 991.255 62.242 992.752 63.489 C 994.249 64.735 995 66.345 995 68.313 C 995 70.152 994.249 71.695 992.752 72.942 C 991.255 74.191 989.326 74.814 986.965 74.814 Z" style="fill: rgb(51, 51, 51);"/>
</svg>