<?xml version="1.0" encoding="utf-8"?>
<svg viewBox="0 0 300 37.5" xmlns="http://www.w3.org/2000/svg">
  <path d="M 14.389 34.953 C 12.901 34.953 11.452 34.718 10.038 34.245 C 8.626 33.773 7.351 33.08 6.211 32.166 C 5.072 31.251 4.169 30.117 3.502 28.759 C 2.834 27.404 2.5 25.842 2.5 24.075 C 2.5 22.185 2.841 20.51 3.525 19.047 C 4.208 17.585 5.126 16.35 6.28 15.344 C 7.434 14.34 8.726 13.57 10.152 13.036 C 11.58 12.502 13.052 12.236 14.571 12.236 C 16.394 12.236 18.003 12.519 19.4 13.081 C 20.796 13.644 21.897 14.438 22.703 15.459 C 23.507 16.48 23.909 17.676 23.909 19.047 C 23.909 20.448 23.491 21.622 22.657 22.567 C 21.822 23.51 20.736 24.221 19.4 24.692 C 18.063 25.165 16.651 25.402 15.162 25.402 C 13.31 25.402 11.648 25.179 10.175 24.739 C 8.703 24.295 7.267 23.756 5.871 23.115 L 5.825 20.373 C 7.434 21.074 8.915 21.562 10.267 21.836 C 11.617 22.111 12.932 22.247 14.206 22.247 C 15.178 22.247 16.051 22.126 16.825 21.882 C 17.601 21.637 18.231 21.272 18.716 20.784 C 19.202 20.297 19.445 19.717 19.445 19.047 C 19.445 18.072 19.02 17.287 18.17 16.693 C 17.319 16.099 16.225 15.802 14.89 15.802 C 13.888 15.802 12.909 15.992 11.952 16.373 C 10.994 16.754 10.13 17.295 9.355 17.996 C 8.581 18.697 7.958 19.543 7.487 20.532 C 7.017 21.525 6.781 22.658 6.781 23.939 C 6.781 25.432 7.146 26.718 7.874 27.8 C 8.603 28.883 9.552 29.705 10.722 30.269 C 11.891 30.833 13.158 31.114 14.525 31.114 C 16.225 31.114 17.722 30.833 19.012 30.269 C 20.304 29.705 21.449 28.996 22.45 28.142 L 24.366 31.114 C 23.514 31.845 22.597 32.502 21.608 33.08 C 20.622 33.659 19.528 34.116 18.328 34.451 C 17.129 34.787 15.815 34.953 14.389 34.953 Z" style="fill: rgb(51, 51, 51);"/>
  <path d="M 49.956 34.315 L 49.956 21.79 C 49.956 20.968 49.849 20.227 49.637 19.572 C 49.425 18.918 49.113 18.354 48.704 17.881 C 48.294 17.409 47.792 17.051 47.2 16.808 C 46.607 16.562 45.917 16.442 45.127 16.442 C 44.307 16.442 43.479 16.601 42.645 16.922 C 41.81 17.242 40.967 17.714 40.117 18.338 C 39.266 18.964 38.424 19.71 37.588 20.579 C 36.754 21.447 35.912 22.431 35.061 23.526 L 35.061 19.869 C 36.031 18.681 36.98 17.615 37.907 16.67 C 38.833 15.726 39.76 14.918 40.686 14.247 C 41.612 13.577 42.568 13.074 43.556 12.739 C 44.542 12.405 45.583 12.236 46.676 12.236 C 47.921 12.236 49.022 12.426 49.978 12.809 C 50.935 13.189 51.74 13.776 52.392 14.568 C 53.046 15.36 53.547 16.342 53.896 17.515 C 54.245 18.689 54.42 20.07 54.42 21.652 L 54.42 34.315 L 49.956 34.315 Z M 27.453 34.315 L 27.453 30.704 L 40.708 30.704 L 40.708 34.315 L 27.453 34.315 Z M 32.281 34.315 L 32.281 12.784 L 36.792 12.784 L 36.792 34.315 L 32.281 34.315 Z M 27.453 16.396 L 27.453 12.784 L 35.835 12.784 L 35.835 16.396 L 27.453 16.396 Z M 45.993 34.315 L 45.993 30.704 L 58.657 30.704 L 58.657 34.315 L 45.993 34.315 Z" style="fill: rgb(51, 51, 51);"/>
  <path d="M 65.351 33.309 L 65.351 12.784 L 69.861 12.784 L 69.861 33.309 L 65.351 33.309 Z M 60.522 34.315 L 60.522 30.704 L 74.735 30.704 L 74.735 34.315 L 60.522 34.315 Z M 60.522 16.396 L 60.522 12.784 L 68.813 12.784 L 68.813 16.396 L 60.522 16.396 Z M 67.037 8.077 C 66.095 8.077 65.282 7.818 64.598 7.3 C 63.915 6.783 63.575 6.142 63.575 5.38 C 63.575 4.526 63.915 3.833 64.598 3.3 C 65.282 2.766 66.095 2.5 67.037 2.5 C 68.101 2.5 68.966 2.766 69.633 3.3 C 70.301 3.833 70.635 4.526 70.635 5.38 C 70.635 6.142 70.301 6.783 69.633 7.3 C 68.966 7.818 68.101 8.077 67.037 8.077 Z" style="fill: rgb(51, 51, 51);"/>
  <path d="M 99.192 34.315 L 99.192 21.79 C 99.192 20.968 99.086 20.227 98.871 19.572 C 98.659 18.918 98.348 18.354 97.938 17.881 C 97.529 17.409 97.028 17.051 96.435 16.808 C 95.844 16.562 95.153 16.442 94.363 16.442 C 93.543 16.442 92.715 16.601 91.88 16.922 C 91.045 17.242 90.203 17.714 89.352 18.338 C 88.501 18.964 87.658 19.71 86.824 20.579 C 85.989 21.447 85.146 22.431 84.296 23.526 L 84.296 19.869 C 85.268 18.681 86.216 17.615 87.143 16.67 C 88.07 15.726 88.996 14.918 89.923 14.247 C 90.849 13.577 91.804 13.074 92.791 12.739 C 93.779 12.405 94.818 12.236 95.91 12.236 C 97.156 12.236 98.257 12.426 99.214 12.809 C 100.172 13.189 100.976 13.776 101.629 14.568 C 102.281 15.36 102.782 16.342 103.132 17.515 C 103.481 18.689 103.654 20.07 103.654 21.652 L 103.654 34.315 L 99.192 34.315 Z M 76.689 34.315 L 76.689 30.704 L 89.945 30.704 L 89.945 34.315 L 76.689 34.315 Z M 81.518 34.315 L 81.518 12.784 L 86.026 12.784 L 86.026 34.315 L 81.518 34.315 Z M 76.689 16.396 L 76.689 12.784 L 85.07 12.784 L 85.07 16.396 L 76.689 16.396 Z M 95.229 34.315 L 95.229 30.704 L 107.892 30.704 L 107.892 34.315 L 95.229 34.315 Z" style="fill: rgb(51, 51, 51);"/>
  <path d="M 122.054 34.953 C 120.565 34.953 119.117 34.718 117.703 34.245 C 116.291 33.773 115.016 33.08 113.877 32.166 C 112.738 31.251 111.834 30.117 111.168 28.759 C 110.499 27.404 110.165 25.842 110.165 24.075 C 110.165 22.185 110.507 20.51 111.19 19.047 C 111.872 17.585 112.792 16.35 113.945 15.344 C 115.099 14.34 116.39 13.57 117.816 13.036 C 119.244 12.502 120.717 12.236 122.236 12.236 C 124.059 12.236 125.668 12.519 127.064 13.081 C 128.461 13.644 129.562 14.438 130.367 15.459 C 131.172 16.48 131.574 17.676 131.574 19.047 C 131.574 20.448 131.157 21.622 130.322 22.567 C 129.487 23.51 128.401 24.221 127.064 24.692 C 125.728 25.165 124.315 25.402 122.827 25.402 C 120.976 25.402 119.313 25.179 117.84 24.739 C 116.368 24.295 114.932 23.756 113.535 23.115 L 113.49 20.373 C 115.099 21.074 116.58 21.562 117.932 21.836 C 119.283 22.111 120.597 22.247 121.871 22.247 C 122.843 22.247 123.716 22.126 124.49 21.882 C 125.265 21.637 125.896 21.272 126.381 20.784 C 126.867 20.297 127.11 19.717 127.11 19.047 C 127.11 18.072 126.685 17.287 125.835 16.693 C 124.984 16.099 123.891 15.802 122.555 15.802 C 121.553 15.802 120.574 15.992 119.617 16.373 C 118.659 16.754 117.795 17.295 117.02 17.996 C 116.246 18.697 115.623 19.543 115.153 20.532 C 114.682 21.525 114.447 22.658 114.447 23.939 C 114.447 25.432 114.811 26.718 115.539 27.8 C 116.268 28.883 117.218 29.705 118.387 30.269 C 119.556 30.833 120.824 31.114 122.19 31.114 C 123.891 31.114 125.387 30.833 126.677 30.269 C 127.969 29.705 129.114 28.996 130.116 28.142 L 132.03 31.114 C 131.179 31.845 130.261 32.502 129.273 33.08 C 128.287 33.659 127.193 34.116 125.994 34.451 C 124.794 34.787 123.481 34.953 122.054 34.953 Z" style="fill: rgb(51, 51, 51);"/>
  <path d="M 139.636 34.909 C 138.634 34.909 137.76 34.618 137.017 34.04 C 136.273 33.461 135.901 32.745 135.901 31.892 C 135.901 30.977 136.273 30.231 137.017 29.652 C 137.76 29.073 138.634 28.783 139.636 28.783 C 140.759 28.783 141.678 29.073 142.392 29.652 C 143.105 30.231 143.462 30.977 143.462 31.892 C 143.462 32.745 143.105 33.461 142.392 34.04 C 141.678 34.618 140.759 34.909 139.636 34.909 Z" style="fill: rgb(51, 51, 51);"/>
  <path d="M 159.816 34.953 C 158.752 34.953 157.706 34.824 156.673 34.566 C 155.641 34.307 154.645 33.925 153.688 33.423 C 152.732 32.919 151.874 32.34 151.115 31.686 C 150.356 31.03 149.703 30.291 149.157 29.469 L 151.298 29.515 L 151.298 34.36 L 147.972 34.36 L 147.972 27.367 L 149.84 27.183 C 150.568 28.006 151.457 28.792 152.505 29.538 C 153.552 30.285 154.668 30.886 155.853 31.343 C 157.037 31.8 158.222 32.029 159.405 32.029 C 160.165 32.029 160.825 31.937 161.387 31.754 C 161.949 31.571 162.382 31.283 162.686 30.886 C 162.989 30.489 163.141 30.017 163.141 29.469 C 163.141 28.982 163.005 28.54 162.73 28.142 C 162.458 27.747 162.047 27.397 161.501 27.093 C 160.954 26.788 160.279 26.491 159.474 26.201 C 158.67 25.912 157.721 25.629 156.627 25.355 C 154.957 24.897 153.484 24.365 152.209 23.755 C 150.933 23.145 149.924 22.392 149.179 21.492 C 148.434 20.594 148.063 19.505 148.063 18.225 C 148.063 17.098 148.375 16.083 148.997 15.185 C 149.619 14.287 150.492 13.562 151.617 13.013 C 152.74 12.464 154.06 12.191 155.579 12.191 C 156.945 12.191 158.259 12.412 159.52 12.853 C 160.779 13.295 161.897 13.912 162.867 14.705 C 163.838 15.497 164.599 16.442 165.146 17.539 L 163.278 17.492 L 163.278 12.784 L 166.557 12.784 L 166.557 19.733 L 164.644 19.962 C 164.067 18.957 163.33 18.087 162.434 17.355 C 161.539 16.625 160.589 16.069 159.587 15.686 C 158.586 15.307 157.614 15.116 156.673 15.116 C 155.883 15.116 155.169 15.223 154.532 15.436 C 153.894 15.649 153.393 15.953 153.029 16.35 C 152.664 16.746 152.481 17.219 152.481 17.768 C 152.481 18.225 152.625 18.636 152.914 19.001 C 153.204 19.367 153.622 19.695 154.167 19.984 C 154.714 20.274 155.374 20.556 156.149 20.829 C 156.924 21.104 157.812 21.378 158.813 21.652 C 160.453 22.111 161.934 22.651 163.254 23.276 C 164.575 23.9 165.623 24.676 166.398 25.608 C 167.172 26.537 167.559 27.702 167.559 29.104 C 167.559 30.322 167.211 31.366 166.511 32.235 C 165.813 33.102 164.88 33.773 163.71 34.245 C 162.54 34.718 161.243 34.953 159.816 34.953 Z" style="fill: rgb(51, 51, 51);"/>
  <path d="M 184.231 35 C 182.712 35 181.262 34.733 179.88 34.2 C 178.498 33.667 177.253 32.905 176.144 31.914 C 175.037 30.924 174.163 29.721 173.526 28.303 C 172.888 26.886 172.569 25.326 172.569 23.62 C 172.569 21.972 172.85 20.456 173.413 19.07 C 173.974 17.684 174.755 16.48 175.758 15.459 C 176.759 14.438 177.914 13.644 179.22 13.081 C 180.527 12.519 181.907 12.236 183.365 12.236 C 184.822 12.236 186.069 12.457 187.101 12.899 C 188.134 13.341 189.037 13.966 189.81 14.773 C 190.586 15.58 191.246 16.562 191.791 17.721 L 190.38 17.355 L 190.38 12.784 L 193.614 12.784 L 193.614 20.326 L 191.702 20.464 C 191.215 19.49 190.63 18.667 189.947 17.996 C 189.265 17.326 188.483 16.822 187.602 16.488 C 186.721 16.153 185.719 15.984 184.596 15.984 C 183.532 15.984 182.554 16.159 181.658 16.51 C 180.762 16.86 179.985 17.371 179.334 18.041 C 178.681 18.712 178.164 19.521 177.785 20.464 C 177.405 21.408 177.216 22.445 177.216 23.573 C 177.216 25.097 177.565 26.421 178.263 27.549 C 178.962 28.676 179.866 29.552 180.974 30.177 C 182.082 30.802 183.258 31.13 184.503 31.161 C 186.113 31.19 187.502 30.893 188.672 30.269 C 189.841 29.645 190.926 28.86 191.928 27.916 L 193.933 30.84 C 192.688 31.998 191.267 32.981 189.674 33.788 C 188.08 34.597 186.265 35 184.231 35 Z" style="fill: rgb(51, 51, 51);"/>
  <path d="M 218.655 34.315 L 218.655 21.79 C 218.655 20.905 218.557 20.122 218.36 19.436 C 218.163 18.75 217.859 18.171 217.448 17.699 C 217.039 17.226 216.529 16.869 215.922 16.625 C 215.314 16.381 214.617 16.259 213.828 16.259 C 213.007 16.259 212.18 16.435 211.344 16.785 C 210.511 17.135 209.675 17.623 208.839 18.247 C 208.004 18.871 207.169 19.633 206.334 20.532 C 205.499 21.431 204.657 22.431 203.806 23.526 L 203.806 19.869 C 204.777 18.681 205.726 17.615 206.653 16.67 C 207.579 15.726 208.514 14.918 209.454 14.247 C 210.395 13.577 211.368 13.074 212.37 12.739 C 213.372 12.405 214.45 12.236 215.603 12.236 C 216.817 12.236 217.896 12.426 218.839 12.809 C 219.778 13.189 220.568 13.776 221.206 14.568 C 221.845 15.36 222.33 16.342 222.665 17.515 C 222.998 18.689 223.166 20.07 223.166 21.652 L 223.166 34.315 L 218.655 34.315 Z M 196.335 34.315 L 196.335 30.704 L 209.545 30.704 L 209.545 34.315 L 196.335 34.315 Z M 214.739 34.315 L 214.739 30.704 L 227.402 30.704 L 227.402 34.315 L 214.739 34.315 Z M 205.628 2.957 L 205.628 34.315 L 201.164 34.315 L 201.164 6.568 L 196.335 6.568 L 196.335 2.957 L 205.628 2.957 Z" style="fill: rgb(51, 51, 51);"/>
  <path d="M 241.522 34.953 C 239.942 34.953 238.447 34.687 237.036 34.154 C 235.623 33.62 234.362 32.859 233.254 31.869 C 232.147 30.878 231.272 29.691 230.635 28.303 C 229.997 26.917 229.679 25.356 229.679 23.62 C 229.679 21.882 229.997 20.311 230.635 18.911 C 231.272 17.508 232.147 16.312 233.254 15.323 C 234.362 14.331 235.623 13.57 237.036 13.036 C 238.447 12.502 239.942 12.236 241.522 12.236 C 243.041 12.236 244.514 12.502 245.941 13.036 C 247.368 13.57 248.637 14.331 249.745 15.323 C 250.852 16.312 251.726 17.508 252.363 18.911 C 253.001 20.311 253.32 21.882 253.32 23.62 C 253.32 25.356 253.008 26.917 252.387 28.303 C 251.763 29.691 250.906 30.878 249.813 31.869 C 248.718 32.859 247.459 33.62 246.031 34.154 C 244.604 34.687 243.101 34.953 241.522 34.953 Z M 241.522 31.39 C 242.888 31.39 244.103 31.069 245.166 30.429 C 246.23 29.788 247.08 28.889 247.717 27.733 C 248.355 26.575 248.674 25.202 248.674 23.62 C 248.674 22.033 248.355 20.663 247.717 19.505 C 247.08 18.347 246.23 17.449 245.166 16.808 C 244.103 16.168 242.888 15.848 241.522 15.848 C 240.156 15.848 238.926 16.168 237.832 16.808 C 236.738 17.449 235.881 18.347 235.258 19.505 C 234.636 20.663 234.325 22.033 234.325 23.62 C 234.325 25.202 234.636 26.575 235.258 27.733 C 235.881 28.889 236.738 29.788 237.832 30.429 C 238.926 31.069 240.156 31.39 241.522 31.39 Z" style="fill: rgb(51, 51, 51);"/>
  <path d="M 268.902 34.953 C 267.322 34.953 265.826 34.687 264.415 34.154 C 263.002 33.62 261.742 32.859 260.634 31.869 C 259.526 30.878 258.653 29.691 258.015 28.303 C 257.376 26.917 257.057 25.356 257.057 23.62 C 257.057 21.882 257.376 20.311 258.015 18.911 C 258.653 17.508 259.526 16.312 260.634 15.323 C 261.742 14.331 263.002 13.57 264.415 13.036 C 265.826 12.502 267.322 12.236 268.902 12.236 C 270.42 12.236 271.893 12.502 273.32 13.036 C 274.748 13.57 276.016 14.331 277.124 15.323 C 278.232 16.312 279.104 17.508 279.743 18.911 C 280.381 20.311 280.7 21.882 280.7 23.62 C 280.7 25.356 280.388 26.917 279.765 28.303 C 279.143 29.691 278.286 30.878 277.191 31.869 C 276.099 32.859 274.838 33.62 273.412 34.154 C 271.983 34.687 270.48 34.953 268.902 34.953 Z M 268.902 31.39 C 270.267 31.39 271.482 31.069 272.546 30.429 C 273.609 29.788 274.458 28.889 275.097 27.733 C 275.734 26.575 276.053 25.202 276.053 23.62 C 276.053 22.033 275.734 20.663 275.097 19.505 C 274.458 18.347 273.609 17.449 272.546 16.808 C 271.482 16.168 270.267 15.848 268.902 15.848 C 267.535 15.848 266.305 16.168 265.212 16.808 C 264.119 17.449 263.26 18.347 262.639 19.505 C 262.015 20.663 261.703 22.033 261.703 23.62 C 261.703 25.202 262.015 26.575 262.639 27.733 C 263.26 28.889 264.119 29.788 265.212 30.429 C 266.305 31.069 267.535 31.39 268.902 31.39 Z" style="fill: rgb(51, 51, 51);"/>
  <path d="M 288.071 33.309 L 288.071 2.957 L 292.581 2.957 L 292.581 33.309 L 288.071 33.309 Z M 283.288 34.315 L 283.288 30.704 L 297.5 30.704 L 297.5 34.315 L 283.288 34.315 Z M 283.288 6.568 L 283.288 2.957 L 292.307 2.957 L 292.307 6.568 L 283.288 6.568 Z" style="fill: rgb(51, 51, 51);"/>
</svg>