<?xml version="1.0" encoding="utf-8"?>
<svg viewBox="0 0 600 600" xmlns="http://www.w3.org/2000/svg">
  <style>
    .svglogo { fill: rgba(0, 0, 0, 1); }
    </style>
  <g transform="matrix(1.193511, 0, 0, 0.793666, 447.981018, 129.588821)">
    <g>
      <path class="svglogo" d="M -247.885 -100.28 L -247.885 -100.28 L -247.885 -100.28 C -231.163 -100.28 -217.972 -94.575 -208.31 -83.166 L -208.31 -83.166 L -208.31 -83.166 C -198.647 -71.757 -193.81 -55.714 -193.81 -35.036 L -193.81 -35.036 L -193.81 -35.036 C -193.81 1.566 -201.535 34.843 -216.986 64.79 L -216.986 64.79 L -216.986 64.79 C -232.519 94.738 -252.996 109.713 -278.428 109.713 L -278.428 109.713 L -278.428 109.713 C -295.388 109.713 -308.818 103.615 -318.718 91.411 L -318.718 91.411 L -318.718 91.411 C -328.546 79.289 -333.454 62.379 -333.454 40.667 L -333.454 40.667 L -333.454 40.667 C -333.454 4.063 -325.575 -28.583 -309.803 -57.26 L -309.803 -57.26 L -309.803 -57.26 C -293.961 -85.936 -273.318 -100.28 -247.885 -100.28 Z M -276.051 94.025 L -276.051 94.025 L -276.051 94.025 C -259.498 94.025 -246.256 80.276 -236.357 52.788 L -236.357 52.788 L -236.357 52.788 C -226.374 25.371 -221.383 -5.683 -221.383 -40.383 L -221.383 -40.383 L -221.383 -40.383 C -221.383 -70.012 -231.163 -84.831 -250.737 -84.831 L -250.737 -84.831 L -250.737 -84.831 C -267.377 -84.831 -280.687 -71.045 -290.67 -43.474 L -290.67 -43.474 L -290.67 -43.474 C -300.736 -15.903 -305.763 14.877 -305.763 48.867 L -305.763 48.867 L -305.763 48.867 C -305.763 78.969 -295.863 94.025 -276.051 94.025 Z"/>
      <path class="svglogo" d="M -108.241 -100.28 L -108.241 -100.28 L -108.241 -100.28 C -91.52 -100.28 -78.327 -94.575 -68.665 -83.166 L -68.665 -83.166 L -68.665 -83.166 C -59.003 -71.757 -54.167 -55.714 -54.167 -35.036 L -54.167 -35.036 L -54.167 -35.036 C -54.167 1.566 -61.891 34.843 -77.342 64.79 L -77.342 64.79 L -77.342 64.79 C -92.874 94.738 -113.351 109.713 -138.785 109.713 L -138.785 109.713 L -138.785 109.713 C -155.744 109.713 -169.174 103.615 -179.073 91.411 L -179.073 91.411 L -179.073 91.411 C -188.901 79.289 -193.81 62.379 -193.81 40.667 L -193.81 40.667 L -193.81 40.667 C -193.81 4.063 -185.931 -28.583 -170.16 -57.26 L -170.16 -57.26 L -170.16 -57.26 C -154.317 -85.936 -133.674 -100.28 -108.241 -100.28 Z M -136.408 94.025 L -136.408 94.025 L -136.408 94.025 C -119.853 94.025 -106.613 80.276 -96.713 52.788 L -96.713 52.788 L -96.713 52.788 C -86.73 25.371 -81.739 -5.683 -81.739 -40.383 L -81.739 -40.383 L -81.739 -40.383 C -81.739 -70.012 -91.52 -84.831 -111.093 -84.831 L -111.093 -84.831 L -111.093 -84.831 C -127.732 -84.831 -141.043 -71.045 -151.025 -43.474 L -151.025 -43.474 L -151.025 -43.474 C -161.091 -15.903 -166.119 14.877 -166.119 48.867 L -166.119 48.867 L -166.119 48.867 C -166.119 78.969 -156.219 94.025 -136.408 94.025 Z"/>
      <path class="svglogo" d="M 31.403 -100.28 L 31.403 -100.28 L 31.403 -100.28 C 48.124 -100.28 61.316 -94.575 70.978 -83.166 L 70.978 -83.166 L 70.978 -83.166 C 80.641 -71.757 85.478 -55.714 85.478 -35.036 L 85.478 -35.036 L 85.478 -35.036 C 85.478 1.566 77.753 34.843 62.302 64.79 L 62.302 64.79 L 62.302 64.79 C 46.77 94.738 26.292 109.713 0.86 109.713 L 0.86 109.713 L 0.86 109.713 C -16.1 109.713 -29.53 103.615 -39.429 91.411 L -39.429 91.411 L -39.429 91.411 C -49.257 79.289 -54.166 62.379 -54.166 40.667 L -54.166 40.667 L -54.166 40.667 C -54.166 4.063 -46.287 -28.583 -30.516 -57.26 L -30.516 -57.26 L -30.516 -57.26 C -14.673 -85.936 5.97 -100.28 31.403 -100.28 Z M 3.237 94.025 L 3.237 94.025 L 3.237 94.025 C 19.791 94.025 33.032 80.276 42.931 52.788 L 42.931 52.788 L 42.931 52.788 C 52.915 25.371 57.905 -5.683 57.905 -40.383 L 57.905 -40.383 L 57.905 -40.383 C 57.905 -70.012 48.124 -84.831 28.551 -84.831 L 28.551 -84.831 L 28.551 -84.831 C 11.911 -84.831 -1.399 -71.045 -11.382 -43.474 L -11.382 -43.474 L -11.382 -43.474 C -21.448 -15.903 -26.476 14.877 -26.476 48.867 L -26.476 48.867 L -26.476 48.867 C -26.476 78.969 -16.575 94.025 3.237 94.025 Z"/>
    </g>
    <g>
      <path class="svglogo" d="M -247.885 109.713 L -247.885 109.713 L -247.885 109.713 C -231.163 109.713 -217.972 115.417 -208.31 126.826 L -208.31 126.826 L -208.31 126.826 C -198.647 138.236 -193.81 154.28 -193.81 174.958 L -193.81 174.958 L -193.81 174.958 C -193.81 211.563 -201.535 244.841 -216.986 274.789 L -216.986 274.789 L -216.986 274.789 C -232.519 304.739 -252.995 319.713 -278.428 319.713 L -278.428 319.713 L -278.428 319.713 C -295.388 319.713 -308.818 313.615 -318.718 301.41 L -318.718 301.41 L -318.718 301.41 C -328.546 289.288 -333.454 272.377 -333.454 250.664 L -333.454 250.664 L -333.454 250.664 C -333.454 214.06 -325.575 181.412 -309.803 152.735 L -309.803 152.735 L -309.803 152.735 C -293.961 124.058 -273.318 109.713 -247.885 109.713 Z M -276.051 304.025 L -276.051 304.025 L -276.051 304.025 C -259.498 304.025 -246.256 290.276 -236.357 262.786 L -236.357 262.786 L -236.357 262.786 C -226.374 235.368 -221.383 204.314 -221.383 169.611 L -221.383 169.611 L -221.383 169.611 C -221.383 139.983 -231.163 125.162 -250.737 125.162 L -250.737 125.162 L -250.737 125.162 C -267.377 125.162 -280.687 138.949 -290.67 166.521 L -290.67 166.521 L -290.67 166.521 C -300.736 194.093 -305.763 224.874 -305.763 258.864 L -305.763 258.864 L -305.763 258.864 C -305.763 288.968 -295.863 304.025 -276.051 304.025 Z"/>
      <path class="svglogo" d="M -108.241 109.71 L -108.241 109.71 L -108.241 109.71 C -91.52 109.71 -78.328 115.414 -68.666 126.824 L -68.666 126.824 L -68.666 126.824 C -59.003 138.234 -54.167 154.278 -54.167 174.956 L -54.167 174.956 L -54.167 174.956 C -54.167 211.56 -61.891 244.838 -77.342 274.786 L -77.342 274.786 L -77.342 274.786 C -92.875 304.736 -113.352 319.71 -138.785 319.71 L -138.785 319.71 L -138.785 319.71 C -155.744 319.71 -169.174 313.613 -179.074 301.407 L -179.074 301.407 L -179.074 301.407 C -188.902 289.285 -193.81 272.374 -193.81 250.661 L -193.81 250.661 L -193.81 250.661 C -193.81 214.057 -185.931 181.41 -170.16 152.732 L -170.16 152.732 L -170.16 152.732 C -154.317 124.055 -133.675 109.71 -108.241 109.71 Z M -136.408 304.023 L -136.408 304.023 L -136.408 304.023 C -119.854 304.023 -106.613 290.273 -96.714 262.783 L -96.714 262.783 L -96.714 262.783 C -86.73 235.366 -81.739 204.311 -81.739 169.609 L -81.739 169.609 L -81.739 169.609 C -81.739 139.98 -91.52 125.159 -111.094 125.159 L -111.094 125.159 L -111.094 125.159 C -127.733 125.159 -141.043 138.947 -151.026 166.518 L -151.026 166.518 L -151.026 166.518 C -161.092 194.09 -166.119 224.871 -166.119 258.861 L -166.119 258.861 L -166.119 258.861 C -166.119 288.965 -156.219 304.023 -136.408 304.023 Z"/>
      <path class="svglogo" d="M 31.403 109.713 L 31.403 109.713 L 31.403 109.713 C 48.125 109.713 61.316 115.417 70.978 126.826 L 70.978 126.826 L 70.978 126.826 C 80.641 138.236 85.478 154.28 85.478 174.958 L 85.478 174.958 L 85.478 174.958 C 85.478 211.563 77.753 244.841 62.302 274.789 L 62.302 274.789 L 62.302 274.789 C 46.77 304.739 26.293 319.713 0.86 319.713 L 0.86 319.713 L 0.86 319.713 C -16.1 319.713 -29.53 313.615 -39.429 301.41 L -39.429 301.41 L -39.429 301.41 C -49.257 289.288 -54.166 272.377 -54.166 250.664 L -54.166 250.664 L -54.166 250.664 C -54.166 214.06 -46.287 181.412 -30.515 152.735 L -30.515 152.735 L -30.515 152.735 C -14.673 124.058 5.97 109.713 31.403 109.713 Z M 3.237 304.025 L 3.237 304.025 L 3.237 304.025 C 19.791 304.025 33.032 290.276 42.931 262.786 L 42.931 262.786 L 42.931 262.786 C 52.915 235.368 57.905 204.314 57.905 169.611 L 57.905 169.611 L 57.905 169.611 C 57.905 139.983 48.125 125.162 28.551 125.162 L 28.551 125.162 L 28.551 125.162 C 11.911 125.162 -1.399 138.949 -11.382 166.521 L -11.382 166.521 L -11.382 166.521 C -21.448 194.093 -26.475 224.874 -26.475 258.864 L -26.475 258.864 L -26.475 258.864 C -26.475 288.968 -16.575 304.025 3.237 304.025 Z"/>
    </g>
    <g>
      <path class="svglogo" d="M -247.885 319.706 L -247.885 319.706 L -247.885 319.706 C -231.163 319.706 -217.972 325.411 -208.31 336.82 L -208.31 336.82 L -208.31 336.82 C -198.647 348.23 -193.81 364.274 -193.81 384.952 L -193.81 384.952 L -193.81 384.952 C -193.81 421.557 -201.535 454.835 -216.986 484.783 L -216.986 484.783 L -216.986 484.783 C -232.519 514.733 -252.995 529.708 -278.428 529.708 L -278.428 529.708 L -278.428 529.708 C -295.388 529.708 -308.818 523.61 -318.718 511.405 L -318.718 511.405 L -318.718 511.405 C -328.546 499.283 -333.454 482.372 -333.454 460.659 L -333.454 460.659 L -333.454 460.659 C -333.454 424.053 -325.575 391.406 -309.803 362.728 L -309.803 362.728 L -309.803 362.728 C -293.961 334.052 -273.318 319.706 -247.885 319.706 Z M -276.051 514.02 L -276.051 514.02 L -276.051 514.02 C -259.498 514.02 -246.256 500.27 -236.357 472.781 L -236.357 472.781 L -236.357 472.781 C -226.374 445.362 -221.383 414.307 -221.383 379.605 L -221.383 379.605 L -221.383 379.605 C -221.383 349.976 -231.163 335.156 -250.737 335.156 L -250.737 335.156 L -250.737 335.156 C -267.377 335.156 -280.687 348.943 -290.67 376.515 L -290.67 376.515 L -290.67 376.515 C -300.736 404.086 -305.763 434.868 -305.763 468.859 L -305.763 468.859 L -305.763 468.859 C -305.763 498.963 -295.863 514.02 -276.051 514.02 Z"/>
      <path class="svglogo" d="M -108.241 319.706 L -108.241 319.706 L -108.241 319.706 C -91.52 319.706 -78.328 325.411 -68.666 336.82 L -68.666 336.82 L -68.666 336.82 C -59.003 348.23 -54.167 364.274 -54.167 384.952 L -54.167 384.952 L -54.167 384.952 C -54.167 421.557 -61.891 454.835 -77.342 484.783 L -77.342 484.783 L -77.342 484.783 C -92.875 514.733 -113.351 529.708 -138.785 529.708 L -138.785 529.708 L -138.785 529.708 C -155.744 529.708 -169.174 523.61 -179.074 511.405 L -179.074 511.405 L -179.074 511.405 C -188.902 499.283 -193.81 482.372 -193.81 460.659 L -193.81 460.659 L -193.81 460.659 C -193.81 424.053 -185.931 391.406 -170.16 362.728 L -170.16 362.728 L -170.16 362.728 C -154.317 334.052 -133.675 319.706 -108.241 319.706 Z M -136.408 514.02 L -136.408 514.02 L -136.408 514.02 C -119.854 514.02 -106.613 500.27 -96.714 472.781 L -96.714 472.781 L -96.714 472.781 C -86.73 445.362 -81.739 414.307 -81.739 379.605 L -81.739 379.605 L -81.739 379.605 C -81.739 349.976 -91.52 335.156 -111.094 335.156 L -111.094 335.156 L -111.094 335.156 C -127.733 335.156 -141.043 348.943 -151.026 376.515 L -151.026 376.515 L -151.026 376.515 C -161.092 404.086 -166.119 434.868 -166.119 468.859 L -166.119 468.859 L -166.119 468.859 C -166.119 498.963 -156.219 514.02 -136.408 514.02 Z"/>
      <path class="svglogo" d="M 31.403 319.706 L 31.403 319.706 L 31.403 319.706 C 48.125 319.706 61.316 325.411 70.978 336.82 L 70.978 336.82 L 70.978 336.82 C 80.641 348.23 85.478 364.274 85.478 384.952 L 85.478 384.952 L 85.478 384.952 C 85.478 421.557 77.753 454.835 62.302 484.783 L 62.302 484.783 L 62.302 484.783 C 46.77 514.733 26.293 529.708 0.86 529.708 L 0.86 529.708 L 0.86 529.708 C -16.1 529.708 -29.53 523.61 -39.429 511.405 L -39.429 511.405 L -39.429 511.405 C -49.257 499.283 -54.166 482.372 -54.166 460.659 L -54.166 460.659 L -54.166 460.659 C -54.166 424.053 -46.287 391.406 -30.515 362.728 L -30.515 362.728 L -30.515 362.728 C -14.673 334.052 5.97 319.706 31.403 319.706 Z M 3.237 514.02 L 3.237 514.02 L 3.237 514.02 C 19.791 514.02 33.032 500.27 42.931 472.781 L 42.931 472.781 L 42.931 472.781 C 52.915 445.362 57.905 414.307 57.905 379.605 L 57.905 379.605 L 57.905 379.605 C 57.905 349.976 48.125 335.156 28.551 335.156 L 28.551 335.156 L 28.551 335.156 C 11.911 335.156 -1.399 348.943 -11.382 376.515 L -11.382 376.515 L -11.382 376.515 C -21.448 404.086 -26.475 434.868 -26.475 468.859 L -26.475 468.859 L -26.475 468.859 C -26.475 498.963 -16.575 514.02 3.237 514.02 Z"/>
    </g>
  </g>
</svg>